<svg width="2420" height="28" viewBox="0 0 2420 28" fill="none" xmlns="http://www.w3.org/2000/svg">
<g clip-path="url(#clip0_3037_19835)">
<path d="M16 1.27229e-06L44 0V6.99999L16 7V1.27229e-06Z" fill="white" fill-opacity="0.1"/>
<path d="M30 1.27229e-06L44 0V6.99999L30 7V1.27229e-06Z" fill="white" fill-opacity="0.3"/>
<path d="M16 21L44 21V28L16 28V21Z" fill="white" fill-opacity="0.1"/>
<path d="M30 21L44 21V28L30 28V21Z" fill="white" fill-opacity="0.3"/>
<path d="M16 10.5L34.6667 10.5V17.5L16 17.5V10.5Z" fill="white" fill-opacity="0.1"/>
<path d="M60 1.27229e-06L88 0V6.99999L60 7V1.27229e-06Z" fill="white" fill-opacity="0.1"/>
<path d="M74 1.27229e-06L88 0V6.99999L74 7V1.27229e-06Z" fill="white" fill-opacity="0.3"/>
<path d="M60 21L88 21V28L60 28V21Z" fill="white" fill-opacity="0.1"/>
<path d="M74 21L88 21V28L74 28V21Z" fill="white" fill-opacity="0.3"/>
<path d="M60 10.5L78.6667 10.5V17.5L60 17.5V10.5Z" fill="white" fill-opacity="0.1"/>
<path d="M104 1.27229e-06L132 0V6.99999L104 7V1.27229e-06Z" fill="white" fill-opacity="0.1"/>
<path d="M118 1.27229e-06L132 0V6.99999L118 7V1.27229e-06Z" fill="white" fill-opacity="0.3"/>
<path d="M104 21L132 21V28L104 28V21Z" fill="white" fill-opacity="0.1"/>
<path d="M118 21L132 21V28L118 28V21Z" fill="white" fill-opacity="0.3"/>
<path d="M104 10.5L122.667 10.5V17.5L104 17.5V10.5Z" fill="white" fill-opacity="0.1"/>
<path d="M148 1.27229e-06L176 0V6.99999L148 7V1.27229e-06Z" fill="white" fill-opacity="0.1"/>
<path d="M162 1.27229e-06L176 0V6.99999L162 7V1.27229e-06Z" fill="white" fill-opacity="0.3"/>
<path d="M148 21L176 21V28L148 28V21Z" fill="white" fill-opacity="0.1"/>
<path d="M162 21L176 21V28L162 28V21Z" fill="white" fill-opacity="0.3"/>
<path d="M148 10.5L166.667 10.5V17.5L148 17.5V10.5Z" fill="white" fill-opacity="0.1"/>
<path d="M192 1.27229e-06L220 0V6.99999L192 7V1.27229e-06Z" fill="white" fill-opacity="0.1"/>
<path d="M206 1.27229e-06L220 0V6.99999L206 7V1.27229e-06Z" fill="white" fill-opacity="0.3"/>
<path d="M192 21L220 21V28L192 28V21Z" fill="white" fill-opacity="0.1"/>
<path d="M206 21L220 21V28L206 28V21Z" fill="white" fill-opacity="0.3"/>
<path d="M192 10.5L210.667 10.5V17.5L192 17.5V10.5Z" fill="white" fill-opacity="0.1"/>
<path d="M236 1.27229e-06L264 0V6.99999L236 7V1.27229e-06Z" fill="white" fill-opacity="0.1"/>
<path d="M250 1.27229e-06L264 0V6.99999L250 7V1.27229e-06Z" fill="white" fill-opacity="0.3"/>
<path d="M236 21L264 21V28L236 28V21Z" fill="white" fill-opacity="0.1"/>
<path d="M250 21L264 21V28L250 28V21Z" fill="white" fill-opacity="0.3"/>
<path d="M236 10.5L254.667 10.5V17.5L236 17.5V10.5Z" fill="white" fill-opacity="0.1"/>
<path d="M280 1.27229e-06L308 0V6.99999L280 7V1.27229e-06Z" fill="white" fill-opacity="0.1"/>
<path d="M294 1.27229e-06L308 0V6.99999L294 7V1.27229e-06Z" fill="white" fill-opacity="0.3"/>
<path d="M280 21L308 21V28L280 28V21Z" fill="white" fill-opacity="0.1"/>
<path d="M294 21L308 21V28L294 28V21Z" fill="white" fill-opacity="0.3"/>
<path d="M280 10.5L298.667 10.5V17.5L280 17.5V10.5Z" fill="white" fill-opacity="0.1"/>
<path d="M324 1.27229e-06L352 0V6.99999L324 7V1.27229e-06Z" fill="white" fill-opacity="0.1"/>
<path d="M338 1.27229e-06L352 0V6.99999L338 7V1.27229e-06Z" fill="white" fill-opacity="0.3"/>
<path d="M324 21L352 21V28L324 28V21Z" fill="white" fill-opacity="0.1"/>
<path d="M338 21L352 21V28L338 28V21Z" fill="white" fill-opacity="0.3"/>
<path d="M324 10.5L342.667 10.5V17.5L324 17.5V10.5Z" fill="white" fill-opacity="0.1"/>
<path d="M368 1.27229e-06L396 0V6.99999L368 7V1.27229e-06Z" fill="white" fill-opacity="0.1"/>
<path d="M382 1.27229e-06L396 0V6.99999L382 7V1.27229e-06Z" fill="white" fill-opacity="0.3"/>
<path d="M368 21L396 21V28L368 28V21Z" fill="white" fill-opacity="0.1"/>
<path d="M382 21L396 21V28L382 28V21Z" fill="white" fill-opacity="0.3"/>
<path d="M368 10.5L386.667 10.5V17.5L368 17.5V10.5Z" fill="white" fill-opacity="0.1"/>
<path d="M412 1.27229e-06L440 0V6.99999L412 7V1.27229e-06Z" fill="white" fill-opacity="0.1"/>
<path d="M426 1.27229e-06L440 0V6.99999L426 7V1.27229e-06Z" fill="white" fill-opacity="0.3"/>
<path d="M412 21L440 21V28L412 28V21Z" fill="white" fill-opacity="0.1"/>
<path d="M426 21L440 21V28L426 28V21Z" fill="white" fill-opacity="0.3"/>
<path d="M412 10.5L430.667 10.5V17.5L412 17.5V10.5Z" fill="white" fill-opacity="0.1"/>
<path d="M456 1.27229e-06L484 0V6.99999L456 7V1.27229e-06Z" fill="white" fill-opacity="0.1"/>
<path d="M470 1.27229e-06L484 0V6.99999L470 7V1.27229e-06Z" fill="white" fill-opacity="0.3"/>
<path d="M456 21L484 21V28L456 28V21Z" fill="white" fill-opacity="0.1"/>
<path d="M470 21L484 21V28L470 28V21Z" fill="white" fill-opacity="0.3"/>
<path d="M456 10.5L474.667 10.5V17.5L456 17.5V10.5Z" fill="white" fill-opacity="0.1"/>
<path d="M500 1.27229e-06L528 0V6.99999L500 7V1.27229e-06Z" fill="white" fill-opacity="0.1"/>
<path d="M514 1.27229e-06L528 0V6.99999L514 7V1.27229e-06Z" fill="white" fill-opacity="0.3"/>
<path d="M500 21L528 21V28L500 28V21Z" fill="white" fill-opacity="0.1"/>
<path d="M514 21L528 21V28L514 28V21Z" fill="white" fill-opacity="0.3"/>
<path d="M500 10.5L518.667 10.5V17.5L500 17.5V10.5Z" fill="white" fill-opacity="0.1"/>
<path d="M544 1.27229e-06L572 0V6.99999L544 7V1.27229e-06Z" fill="white" fill-opacity="0.1"/>
<path d="M558 1.27229e-06L572 0V6.99999L558 7V1.27229e-06Z" fill="white" fill-opacity="0.3"/>
<path d="M544 21L572 21V28L544 28V21Z" fill="white" fill-opacity="0.1"/>
<path d="M558 21L572 21V28L558 28V21Z" fill="white" fill-opacity="0.3"/>
<path d="M544 10.5L562.667 10.5V17.5L544 17.5V10.5Z" fill="white" fill-opacity="0.1"/>
<path d="M588 1.27229e-06L616 0V6.99999L588 7V1.27229e-06Z" fill="white" fill-opacity="0.1"/>
<path d="M602 1.27229e-06L616 0V6.99999L602 7V1.27229e-06Z" fill="white" fill-opacity="0.3"/>
<path d="M588 21L616 21V28L588 28V21Z" fill="white" fill-opacity="0.1"/>
<path d="M602 21L616 21V28L602 28V21Z" fill="white" fill-opacity="0.3"/>
<path d="M588 10.5L606.667 10.5V17.5L588 17.5V10.5Z" fill="white" fill-opacity="0.1"/>
<path d="M632 1.27229e-06L660 0V6.99999L632 7V1.27229e-06Z" fill="white" fill-opacity="0.1"/>
<path d="M646 1.27229e-06L660 0V6.99999L646 7V1.27229e-06Z" fill="white" fill-opacity="0.3"/>
<path d="M632 21L660 21V28L632 28V21Z" fill="white" fill-opacity="0.1"/>
<path d="M646 21L660 21V28L646 28V21Z" fill="white" fill-opacity="0.3"/>
<path d="M632 10.5L650.667 10.5V17.5L632 17.5V10.5Z" fill="white" fill-opacity="0.1"/>
<path d="M676 1.27229e-06L704 0V6.99999L676 7V1.27229e-06Z" fill="white" fill-opacity="0.1"/>
<path d="M690 1.27229e-06L704 0V6.99999L690 7V1.27229e-06Z" fill="white" fill-opacity="0.3"/>
<path d="M676 21L704 21V28L676 28V21Z" fill="white" fill-opacity="0.1"/>
<path d="M690 21L704 21V28L690 28V21Z" fill="white" fill-opacity="0.3"/>
<path d="M676 10.5L694.667 10.5V17.5L676 17.5V10.5Z" fill="white" fill-opacity="0.1"/>
<path d="M720 1.27229e-06L748 0V6.99999L720 7V1.27229e-06Z" fill="white" fill-opacity="0.1"/>
<path d="M734 1.27229e-06L748 0V6.99999L734 7V1.27229e-06Z" fill="white" fill-opacity="0.3"/>
<path d="M720 21L748 21V28L720 28V21Z" fill="white" fill-opacity="0.1"/>
<path d="M734 21L748 21V28L734 28V21Z" fill="white" fill-opacity="0.3"/>
<path d="M720 10.5L738.667 10.5V17.5L720 17.5V10.5Z" fill="white" fill-opacity="0.1"/>
<path d="M764 1.27229e-06L792 0V6.99999L764 7V1.27229e-06Z" fill="white" fill-opacity="0.1"/>
<path d="M778 1.27229e-06L792 0V6.99999L778 7V1.27229e-06Z" fill="white" fill-opacity="0.3"/>
<path d="M764 21L792 21V28L764 28V21Z" fill="white" fill-opacity="0.1"/>
<path d="M778 21L792 21V28L778 28V21Z" fill="white" fill-opacity="0.3"/>
<path d="M764 10.5L782.667 10.5V17.5L764 17.5V10.5Z" fill="white" fill-opacity="0.1"/>
<path d="M808 1.27229e-06L836 0V6.99999L808 7V1.27229e-06Z" fill="white" fill-opacity="0.1"/>
<path d="M822 1.27229e-06L836 0V6.99999L822 7V1.27229e-06Z" fill="white" fill-opacity="0.3"/>
<path d="M808 21L836 21V28L808 28V21Z" fill="white" fill-opacity="0.1"/>
<path d="M822 21L836 21V28L822 28V21Z" fill="white" fill-opacity="0.3"/>
<path d="M808 10.5L826.667 10.5V17.5L808 17.5V10.5Z" fill="white" fill-opacity="0.1"/>
<path d="M852 1.27229e-06L880 0V6.99999L852 7V1.27229e-06Z" fill="white" fill-opacity="0.1"/>
<path d="M866 1.27229e-06L880 0V6.99999L866 7V1.27229e-06Z" fill="white" fill-opacity="0.3"/>
<path d="M852 21L880 21V28L852 28V21Z" fill="white" fill-opacity="0.1"/>
<path d="M866 21L880 21V28L866 28V21Z" fill="white" fill-opacity="0.3"/>
<path d="M852 10.5L870.667 10.5V17.5L852 17.5V10.5Z" fill="white" fill-opacity="0.1"/>
<path d="M896 1.27229e-06L924 0V6.99999L896 7V1.27229e-06Z" fill="white" fill-opacity="0.1"/>
<path d="M910 1.27229e-06L924 0V6.99999L910 7V1.27229e-06Z" fill="white" fill-opacity="0.3"/>
<path d="M896 21L924 21V28L896 28V21Z" fill="white" fill-opacity="0.1"/>
<path d="M910 21L924 21V28L910 28V21Z" fill="white" fill-opacity="0.3"/>
<path d="M896 10.5L914.667 10.5V17.5L896 17.5V10.5Z" fill="white" fill-opacity="0.1"/>
<path d="M940 1.27229e-06L968 0V6.99999L940 7V1.27229e-06Z" fill="white" fill-opacity="0.1"/>
<path d="M954 1.27229e-06L968 0V6.99999L954 7V1.27229e-06Z" fill="white" fill-opacity="0.3"/>
<path d="M940 21L968 21V28L940 28V21Z" fill="white" fill-opacity="0.1"/>
<path d="M954 21L968 21V28L954 28V21Z" fill="white" fill-opacity="0.3"/>
<path d="M940 10.5L958.667 10.5V17.5L940 17.5V10.5Z" fill="white" fill-opacity="0.1"/>
<path d="M984 1.27229e-06L1012 0V6.99999L984 7V1.27229e-06Z" fill="white" fill-opacity="0.1"/>
<path d="M998 1.27229e-06L1012 0V6.99999L998 7V1.27229e-06Z" fill="white" fill-opacity="0.3"/>
<path d="M984 21L1012 21V28L984 28V21Z" fill="white" fill-opacity="0.1"/>
<path d="M998 21L1012 21V28L998 28V21Z" fill="white" fill-opacity="0.3"/>
<path d="M984 10.5L1002.67 10.5V17.5L984 17.5V10.5Z" fill="white" fill-opacity="0.1"/>
<path d="M1028 1.27229e-06L1056 0V6.99999L1028 7V1.27229e-06Z" fill="white" fill-opacity="0.1"/>
<path d="M1042 1.27229e-06L1056 0V6.99999L1042 7V1.27229e-06Z" fill="white" fill-opacity="0.3"/>
<path d="M1028 21L1056 21V28L1028 28V21Z" fill="white" fill-opacity="0.1"/>
<path d="M1042 21L1056 21V28L1042 28V21Z" fill="white" fill-opacity="0.3"/>
<path d="M1028 10.5L1046.67 10.5V17.5L1028 17.5V10.5Z" fill="white" fill-opacity="0.1"/>
<path d="M1072 1.27229e-06L1100 0V6.99999L1072 7V1.27229e-06Z" fill="white" fill-opacity="0.1"/>
<path d="M1086 1.27229e-06L1100 0V6.99999L1086 7V1.27229e-06Z" fill="white" fill-opacity="0.3"/>
<path d="M1072 21L1100 21V28L1072 28V21Z" fill="white" fill-opacity="0.1"/>
<path d="M1086 21L1100 21V28L1086 28V21Z" fill="white" fill-opacity="0.3"/>
<path d="M1072 10.5L1090.67 10.5V17.5L1072 17.5V10.5Z" fill="white" fill-opacity="0.1"/>
<path d="M1116 1.27229e-06L1144 0V6.99999L1116 7V1.27229e-06Z" fill="white" fill-opacity="0.1"/>
<path d="M1130 1.27229e-06L1144 0V6.99999L1130 7V1.27229e-06Z" fill="white" fill-opacity="0.3"/>
<path d="M1116 21L1144 21V28L1116 28V21Z" fill="white" fill-opacity="0.1"/>
<path d="M1130 21L1144 21V28L1130 28V21Z" fill="white" fill-opacity="0.3"/>
<path d="M1116 10.5L1134.67 10.5V17.5L1116 17.5V10.5Z" fill="white" fill-opacity="0.1"/>
<path d="M1160 1.27229e-06L1188 0V6.99999L1160 7V1.27229e-06Z" fill="white" fill-opacity="0.1"/>
<path d="M1174 1.27229e-06L1188 0V6.99999L1174 7V1.27229e-06Z" fill="white" fill-opacity="0.3"/>
<path d="M1160 21L1188 21V28L1160 28V21Z" fill="white" fill-opacity="0.1"/>
<path d="M1174 21L1188 21V28L1174 28V21Z" fill="white" fill-opacity="0.3"/>
<path d="M1160 10.5L1178.67 10.5V17.5L1160 17.5V10.5Z" fill="white" fill-opacity="0.1"/>
<path d="M1204 1.27229e-06L1232 0V6.99999L1204 7V1.27229e-06Z" fill="white" fill-opacity="0.1"/>
<path d="M1218 1.27229e-06L1232 0V6.99999L1218 7V1.27229e-06Z" fill="white" fill-opacity="0.3"/>
<path d="M1204 21L1232 21V28L1204 28V21Z" fill="white" fill-opacity="0.1"/>
<path d="M1218 21L1232 21V28L1218 28V21Z" fill="white" fill-opacity="0.3"/>
<path d="M1204 10.5L1222.67 10.5V17.5L1204 17.5V10.5Z" fill="white" fill-opacity="0.1"/>
<path d="M1248 1.27229e-06L1276 0V6.99999L1248 7V1.27229e-06Z" fill="white" fill-opacity="0.1"/>
<path d="M1262 1.27229e-06L1276 0V6.99999L1262 7V1.27229e-06Z" fill="white" fill-opacity="0.3"/>
<path d="M1248 21L1276 21V28L1248 28V21Z" fill="white" fill-opacity="0.1"/>
<path d="M1262 21L1276 21V28L1262 28V21Z" fill="white" fill-opacity="0.3"/>
<path d="M1248 10.5L1266.67 10.5V17.5L1248 17.5V10.5Z" fill="white" fill-opacity="0.1"/>
<path d="M1292 1.27229e-06L1320 0V6.99999L1292 7V1.27229e-06Z" fill="white" fill-opacity="0.1"/>
<path d="M1306 1.27229e-06L1320 0V6.99999L1306 7V1.27229e-06Z" fill="white" fill-opacity="0.3"/>
<path d="M1292 21L1320 21V28L1292 28V21Z" fill="white" fill-opacity="0.1"/>
<path d="M1306 21L1320 21V28L1306 28V21Z" fill="white" fill-opacity="0.3"/>
<path d="M1292 10.5L1310.67 10.5V17.5L1292 17.5V10.5Z" fill="white" fill-opacity="0.1"/>
<path d="M1336 1.27229e-06L1364 0V6.99999L1336 7V1.27229e-06Z" fill="white" fill-opacity="0.1"/>
<path d="M1350 1.27229e-06L1364 0V6.99999L1350 7V1.27229e-06Z" fill="white" fill-opacity="0.3"/>
<path d="M1336 21L1364 21V28L1336 28V21Z" fill="white" fill-opacity="0.1"/>
<path d="M1350 21L1364 21V28L1350 28V21Z" fill="white" fill-opacity="0.3"/>
<path d="M1336 10.5L1354.67 10.5V17.5L1336 17.5V10.5Z" fill="white" fill-opacity="0.1"/>
<path d="M1380 1.27229e-06L1408 0V6.99999L1380 7V1.27229e-06Z" fill="white" fill-opacity="0.1"/>
<path d="M1394 1.27229e-06L1408 0V6.99999L1394 7V1.27229e-06Z" fill="white" fill-opacity="0.3"/>
<path d="M1380 21L1408 21V28L1380 28V21Z" fill="white" fill-opacity="0.1"/>
<path d="M1394 21L1408 21V28L1394 28V21Z" fill="white" fill-opacity="0.3"/>
<path d="M1380 10.5L1398.67 10.5V17.5L1380 17.5V10.5Z" fill="white" fill-opacity="0.1"/>
<path d="M1424 1.27229e-06L1452 0V6.99999L1424 7V1.27229e-06Z" fill="white" fill-opacity="0.1"/>
<path d="M1438 1.27229e-06L1452 0V6.99999L1438 7V1.27229e-06Z" fill="white" fill-opacity="0.3"/>
<path d="M1424 21L1452 21V28L1424 28V21Z" fill="white" fill-opacity="0.1"/>
<path d="M1438 21L1452 21V28L1438 28V21Z" fill="white" fill-opacity="0.3"/>
<path d="M1424 10.5L1442.67 10.5V17.5L1424 17.5V10.5Z" fill="white" fill-opacity="0.1"/>
<path d="M1468 1.27229e-06L1496 0V6.99999L1468 7V1.27229e-06Z" fill="white" fill-opacity="0.1"/>
<path d="M1482 1.27229e-06L1496 0V6.99999L1482 7V1.27229e-06Z" fill="white" fill-opacity="0.3"/>
<path d="M1468 21L1496 21V28L1468 28V21Z" fill="white" fill-opacity="0.1"/>
<path d="M1482 21L1496 21V28L1482 28V21Z" fill="white" fill-opacity="0.3"/>
<path d="M1468 10.5L1486.67 10.5V17.5L1468 17.5V10.5Z" fill="white" fill-opacity="0.1"/>
<path d="M1512 1.27229e-06L1540 0V6.99999L1512 7V1.27229e-06Z" fill="white" fill-opacity="0.1"/>
<path d="M1526 1.27229e-06L1540 0V6.99999L1526 7V1.27229e-06Z" fill="white" fill-opacity="0.3"/>
<path d="M1512 21L1540 21V28L1512 28V21Z" fill="white" fill-opacity="0.1"/>
<path d="M1526 21L1540 21V28L1526 28V21Z" fill="white" fill-opacity="0.3"/>
<path d="M1512 10.5L1530.67 10.5V17.5L1512 17.5V10.5Z" fill="white" fill-opacity="0.1"/>
<path d="M1556 1.27229e-06L1584 0V6.99999L1556 7V1.27229e-06Z" fill="white" fill-opacity="0.1"/>
<path d="M1570 1.27229e-06L1584 0V6.99999L1570 7V1.27229e-06Z" fill="white" fill-opacity="0.3"/>
<path d="M1556 21L1584 21V28L1556 28V21Z" fill="white" fill-opacity="0.1"/>
<path d="M1570 21L1584 21V28L1570 28V21Z" fill="white" fill-opacity="0.3"/>
<path d="M1556 10.5L1574.67 10.5V17.5L1556 17.5V10.5Z" fill="white" fill-opacity="0.1"/>
<path d="M1600 1.27229e-06L1628 0V6.99999L1600 7V1.27229e-06Z" fill="white" fill-opacity="0.1"/>
<path d="M1614 1.27229e-06L1628 0V6.99999L1614 7V1.27229e-06Z" fill="white" fill-opacity="0.3"/>
<path d="M1600 21L1628 21V28L1600 28V21Z" fill="white" fill-opacity="0.1"/>
<path d="M1614 21L1628 21V28L1614 28V21Z" fill="white" fill-opacity="0.3"/>
<path d="M1600 10.5L1618.67 10.5V17.5L1600 17.5V10.5Z" fill="white" fill-opacity="0.1"/>
<path d="M1644 1.27229e-06L1672 0V6.99999L1644 7V1.27229e-06Z" fill="white" fill-opacity="0.1"/>
<path d="M1658 1.27229e-06L1672 0V6.99999L1658 7V1.27229e-06Z" fill="white" fill-opacity="0.3"/>
<path d="M1644 21L1672 21V28L1644 28V21Z" fill="white" fill-opacity="0.1"/>
<path d="M1658 21L1672 21V28L1658 28V21Z" fill="white" fill-opacity="0.3"/>
<path d="M1644 10.5L1662.67 10.5V17.5L1644 17.5V10.5Z" fill="white" fill-opacity="0.1"/>
<path d="M1688 1.27229e-06L1716 0V6.99999L1688 7V1.27229e-06Z" fill="white" fill-opacity="0.1"/>
<path d="M1702 1.27229e-06L1716 0V6.99999L1702 7V1.27229e-06Z" fill="white" fill-opacity="0.3"/>
<path d="M1688 21L1716 21V28L1688 28V21Z" fill="white" fill-opacity="0.1"/>
<path d="M1702 21L1716 21V28L1702 28V21Z" fill="white" fill-opacity="0.3"/>
<path d="M1688 10.5L1706.67 10.5V17.5L1688 17.5V10.5Z" fill="white" fill-opacity="0.1"/>
<path d="M1732 1.27229e-06L1760 0V6.99999L1732 7V1.27229e-06Z" fill="white" fill-opacity="0.1"/>
<path d="M1746 1.27229e-06L1760 0V6.99999L1746 7V1.27229e-06Z" fill="white" fill-opacity="0.3"/>
<path d="M1732 21L1760 21V28L1732 28V21Z" fill="white" fill-opacity="0.1"/>
<path d="M1746 21L1760 21V28L1746 28V21Z" fill="white" fill-opacity="0.3"/>
<path d="M1732 10.5L1750.67 10.5V17.5L1732 17.5V10.5Z" fill="white" fill-opacity="0.1"/>
<path d="M1776 1.27229e-06L1804 0V6.99999L1776 7V1.27229e-06Z" fill="white" fill-opacity="0.1"/>
<path d="M1790 1.27229e-06L1804 0V6.99999L1790 7V1.27229e-06Z" fill="white" fill-opacity="0.3"/>
<path d="M1776 21L1804 21V28L1776 28V21Z" fill="white" fill-opacity="0.1"/>
<path d="M1790 21L1804 21V28L1790 28V21Z" fill="white" fill-opacity="0.3"/>
<path d="M1776 10.5L1794.67 10.5V17.5L1776 17.5V10.5Z" fill="white" fill-opacity="0.1"/>
<path d="M1820 1.27229e-06L1848 0V6.99999L1820 7V1.27229e-06Z" fill="white" fill-opacity="0.1"/>
<path d="M1834 1.27229e-06L1848 0V6.99999L1834 7V1.27229e-06Z" fill="white" fill-opacity="0.3"/>
<path d="M1820 21L1848 21V28L1820 28V21Z" fill="white" fill-opacity="0.1"/>
<path d="M1834 21L1848 21V28L1834 28V21Z" fill="white" fill-opacity="0.3"/>
<path d="M1820 10.5L1838.67 10.5V17.5L1820 17.5V10.5Z" fill="white" fill-opacity="0.1"/>
<path d="M1864 1.27229e-06L1892 0V6.99999L1864 7V1.27229e-06Z" fill="white" fill-opacity="0.1"/>
<path d="M1878 1.27229e-06L1892 0V6.99999L1878 7V1.27229e-06Z" fill="white" fill-opacity="0.3"/>
<path d="M1864 21L1892 21V28L1864 28V21Z" fill="white" fill-opacity="0.1"/>
<path d="M1878 21L1892 21V28L1878 28V21Z" fill="white" fill-opacity="0.3"/>
<path d="M1864 10.5L1882.67 10.5V17.5L1864 17.5V10.5Z" fill="white" fill-opacity="0.1"/>
<path d="M1908 1.27229e-06L1936 0V6.99999L1908 7V1.27229e-06Z" fill="white" fill-opacity="0.1"/>
<path d="M1922 1.27229e-06L1936 0V6.99999L1922 7V1.27229e-06Z" fill="white" fill-opacity="0.3"/>
<path d="M1908 21L1936 21V28L1908 28V21Z" fill="white" fill-opacity="0.1"/>
<path d="M1922 21L1936 21V28L1922 28V21Z" fill="white" fill-opacity="0.3"/>
<path d="M1908 10.5L1926.67 10.5V17.5L1908 17.5V10.5Z" fill="white" fill-opacity="0.1"/>
<path d="M1952 1.27229e-06L1980 0V6.99999L1952 7V1.27229e-06Z" fill="white" fill-opacity="0.1"/>
<path d="M1966 1.27229e-06L1980 0V6.99999L1966 7V1.27229e-06Z" fill="white" fill-opacity="0.3"/>
<path d="M1952 21L1980 21V28L1952 28V21Z" fill="white" fill-opacity="0.1"/>
<path d="M1966 21L1980 21V28L1966 28V21Z" fill="white" fill-opacity="0.3"/>
<path d="M1952 10.5L1970.67 10.5V17.5L1952 17.5V10.5Z" fill="white" fill-opacity="0.1"/>
<path d="M1996 1.27229e-06L2024 0V6.99999L1996 7V1.27229e-06Z" fill="white" fill-opacity="0.1"/>
<path d="M2010 1.27229e-06L2024 0V6.99999L2010 7V1.27229e-06Z" fill="white" fill-opacity="0.3"/>
<path d="M1996 21L2024 21V28L1996 28V21Z" fill="white" fill-opacity="0.1"/>
<path d="M2010 21L2024 21V28L2010 28V21Z" fill="white" fill-opacity="0.3"/>
<path d="M1996 10.5L2014.67 10.5V17.5L1996 17.5V10.5Z" fill="white" fill-opacity="0.1"/>
<path d="M2040 1.27229e-06L2068 0V6.99999L2040 7V1.27229e-06Z" fill="white" fill-opacity="0.1"/>
<path d="M2054 1.27229e-06L2068 0V6.99999L2054 7V1.27229e-06Z" fill="white" fill-opacity="0.3"/>
<path d="M2040 21L2068 21V28L2040 28V21Z" fill="white" fill-opacity="0.1"/>
<path d="M2054 21L2068 21V28L2054 28V21Z" fill="white" fill-opacity="0.3"/>
<path d="M2040 10.5L2058.67 10.5V17.5L2040 17.5V10.5Z" fill="white" fill-opacity="0.1"/>
<path d="M2084 1.27229e-06L2112 0V6.99999L2084 7V1.27229e-06Z" fill="white" fill-opacity="0.1"/>
<path d="M2098 1.27229e-06L2112 0V6.99999L2098 7V1.27229e-06Z" fill="white" fill-opacity="0.3"/>
<path d="M2084 21L2112 21V28L2084 28V21Z" fill="white" fill-opacity="0.1"/>
<path d="M2098 21L2112 21V28L2098 28V21Z" fill="white" fill-opacity="0.3"/>
<path d="M2084 10.5L2102.67 10.5V17.5L2084 17.5V10.5Z" fill="white" fill-opacity="0.1"/>
<path d="M2128 1.27229e-06L2156 0V6.99999L2128 7V1.27229e-06Z" fill="white" fill-opacity="0.1"/>
<path d="M2142 1.27229e-06L2156 0V6.99999L2142 7V1.27229e-06Z" fill="white" fill-opacity="0.3"/>
<path d="M2128 21L2156 21V28L2128 28V21Z" fill="white" fill-opacity="0.1"/>
<path d="M2142 21L2156 21V28L2142 28V21Z" fill="white" fill-opacity="0.3"/>
<path d="M2128 10.5L2146.67 10.5V17.5L2128 17.5V10.5Z" fill="white" fill-opacity="0.1"/>
<path d="M2172 1.27229e-06L2200 0V6.99999L2172 7V1.27229e-06Z" fill="white" fill-opacity="0.1"/>
<path d="M2186 1.27229e-06L2200 0V6.99999L2186 7V1.27229e-06Z" fill="white" fill-opacity="0.3"/>
<path d="M2172 21L2200 21V28L2172 28V21Z" fill="white" fill-opacity="0.1"/>
<path d="M2186 21L2200 21V28L2186 28V21Z" fill="white" fill-opacity="0.3"/>
<path d="M2172 10.5L2190.67 10.5V17.5L2172 17.5V10.5Z" fill="white" fill-opacity="0.1"/>
<path d="M2216 1.27229e-06L2244 0V6.99999L2216 7V1.27229e-06Z" fill="white" fill-opacity="0.1"/>
<path d="M2230 1.27229e-06L2244 0V6.99999L2230 7V1.27229e-06Z" fill="white" fill-opacity="0.3"/>
<path d="M2216 21L2244 21V28L2216 28V21Z" fill="white" fill-opacity="0.1"/>
<path d="M2230 21L2244 21V28L2230 28V21Z" fill="white" fill-opacity="0.3"/>
<path d="M2216 10.5L2234.67 10.5V17.5L2216 17.5V10.5Z" fill="white" fill-opacity="0.1"/>
<path d="M2260 1.27229e-06L2288 0V6.99999L2260 7V1.27229e-06Z" fill="white" fill-opacity="0.1"/>
<path d="M2274 1.27229e-06L2288 0V6.99999L2274 7V1.27229e-06Z" fill="white" fill-opacity="0.3"/>
<path d="M2260 21L2288 21V28L2260 28V21Z" fill="white" fill-opacity="0.1"/>
<path d="M2274 21L2288 21V28L2274 28V21Z" fill="white" fill-opacity="0.3"/>
<path d="M2260 10.5L2278.67 10.5V17.5L2260 17.5V10.5Z" fill="white" fill-opacity="0.1"/>
<path d="M2304 1.27229e-06L2332 0V6.99999L2304 7V1.27229e-06Z" fill="white" fill-opacity="0.1"/>
<path d="M2318 1.27229e-06L2332 0V6.99999L2318 7V1.27229e-06Z" fill="white" fill-opacity="0.3"/>
<path d="M2304 21L2332 21V28L2304 28V21Z" fill="white" fill-opacity="0.1"/>
<path d="M2318 21L2332 21V28L2318 28V21Z" fill="white" fill-opacity="0.3"/>
<path d="M2304 10.5L2322.67 10.5V17.5L2304 17.5V10.5Z" fill="white" fill-opacity="0.1"/>
<path d="M2348 1.27229e-06L2376 0V6.99999L2348 7V1.27229e-06Z" fill="white" fill-opacity="0.1"/>
<path d="M2362 1.27229e-06L2376 0V6.99999L2362 7V1.27229e-06Z" fill="white" fill-opacity="0.3"/>
<path d="M2348 21L2376 21V28L2348 28V21Z" fill="white" fill-opacity="0.1"/>
<path d="M2362 21L2376 21V28L2362 28V21Z" fill="white" fill-opacity="0.3"/>
<path d="M2348 10.5L2366.67 10.5V17.5L2348 17.5V10.5Z" fill="white" fill-opacity="0.1"/>
<path d="M2392 1.27229e-06L2420 0V6.99999L2392 7V1.27229e-06Z" fill="white" fill-opacity="0.1"/>
<path d="M2406 1.27229e-06L2420 0V6.99999L2406 7V1.27229e-06Z" fill="white" fill-opacity="0.3"/>
<path d="M2392 21L2420 21V28L2392 28V21Z" fill="white" fill-opacity="0.1"/>
<path d="M2406 21L2420 21V28L2406 28V21Z" fill="white" fill-opacity="0.3"/>
<path d="M2392 10.5L2410.67 10.5V17.5L2392 17.5V10.5Z" fill="white" fill-opacity="0.1"/>
</g>
<defs>
<clipPath id="clip0_3037_19835">
<rect width="2420" height="28" fill="white"/>
</clipPath>
</defs>
</svg>
