<svg width="155" height="40" viewBox="0 0 155 40" fill="none" xmlns="http://www.w3.org/2000/svg">
<path d="M4.52688e-06 1.81756e-06L20.0255 0V9.99998L4.52688e-06 10V1.81756e-06Z" fill="white"/>
<path d="M0 30L20.0255 30V40L0 40V30Z" fill="white"/>
<path d="M20.0255 0H40.0509V9.99998H20.0255V0Z" fill="#009DDA"/>
<path d="M20.0255 30H40.0509V40H20.0255V30Z" fill="#009DDA"/>
<path d="M0 15L27.1774 15V25L0 25V15Z" fill="white"/>
<path d="M50.7765 17.0001V3.50007H61.9868V6.38008H54.0928V8.91808H61.2298V11.5821H54.0928V14.1201H61.9868V17.0001H50.7765Z" fill="white"/>
<path d="M66.4313 15.7761L67.5487 12.8781C69.2249 13.8501 71.5138 14.5341 73.6225 14.5341C75.2625 14.5341 76.1997 14.1021 76.1997 13.5081C76.1997 11.7621 66.8638 11.9781 66.8638 7.13608C66.8638 4.77808 69.1528 3.10408 73.1539 3.10408C76.9927 3.10408 79.0834 4.83208 79.0834 4.83208L77.6236 7.35208C76.4881 6.57808 74.4695 5.98408 72.9556 5.98408C71.3335 5.98408 70.2161 6.47008 70.2161 7.24408C70.2161 9.13408 79.5881 8.73808 79.5881 13.5441C79.5881 15.3981 77.7497 17.4681 73.4963 17.4681C69.351 17.4681 66.4313 15.7761 66.4313 15.7761Z" fill="white"/>
<path d="M87.7852 17.0001V6.38008H83.4057V3.50007H95.481V6.38008H91.1015V17.0001H87.7852Z" fill="white"/>
<path d="M103.418 6.52408L101.616 11.8881H106.031L104.229 6.52408H103.418ZM99.9214 17.0001H96.389L101.291 3.50007H106.374L111.276 17.0001H107.743L106.914 14.5341H100.732L99.9214 17.0001Z" fill="white"/>
<path d="M116.54 17.0001V6.38008H112.161V3.50007H124.236V6.38008H119.857V17.0001H116.54Z" fill="white"/>
<path d="M128.367 17.0001V3.50007H139.577V6.38008H131.683V8.91808H138.82V11.5821H131.683V14.1201H139.577V17.0001H128.367Z" fill="white"/>
<path d="M61.6444 31.6401L64.8885 32.2881C64.0234 35.2941 61.4641 36.8601 57.8235 36.8601C53.2997 36.8601 50.4341 34.4301 50.4341 29.7501C50.4341 25.0701 53.2817 22.6401 57.8235 22.6401C61.5723 22.6401 64.1856 24.2961 64.9786 27.5001L61.6984 28.0581C61.1938 26.4021 59.8601 25.5201 57.8235 25.5201C55.1922 25.5201 53.7864 27.0681 53.7864 29.7501C53.7864 32.4321 55.1922 33.9801 57.8235 33.9801C59.77 33.9801 61.0857 33.1521 61.6444 31.6401Z" fill="white"/>
<path d="M75.6309 26.0241L73.8286 31.3881H78.2442L76.4419 26.0241H75.6309ZM72.1344 36.5001H68.6019L73.5042 23.0001H78.5866L83.4889 36.5001H79.9564L79.1273 34.0341H72.9455L72.1344 36.5001Z" fill="white"/>
<path d="M94.6795 25.8801H90.7505V30.3981H94.6795C95.7608 30.3981 96.9143 29.9841 96.9143 28.2201C96.9143 26.4561 95.7608 25.8801 94.6795 25.8801ZM90.7505 36.5001H87.4342V23.0001H94.6614C97.8515 23.0001 100.231 24.6021 100.231 28.2021C100.231 31.8021 97.8515 33.2781 94.6614 33.2781H90.7505V36.5001Z" fill="white"/>
<path d="M104.808 36.5001V23.0001H108.124V36.5001H104.808Z" fill="white"/>
<path d="M116.804 36.5001V25.8801H112.425V23.0001H124.5V25.8801H120.121V36.5001H116.804Z" fill="white"/>
<path d="M132.437 26.0241L130.635 31.3881H135.05L133.248 26.0241H132.437ZM128.941 36.5001H125.408L130.31 23.0001H135.393L140.295 36.5001H136.762L135.933 34.0341H129.752L128.941 36.5001Z" fill="white"/>
<path d="M144.222 36.5001V23.0001H147.539V33.6201H155V36.5001H144.222Z" fill="white"/>
</svg>
