<svg width="108" height="46" viewBox="0 0 108 46" fill="none" xmlns="http://www.w3.org/2000/svg">
<path d="M3.15421e-06 9L13.9532 9V16L3.15421e-06 16V9Z" fill="#001B3A"/>
<path d="M0 30L13.9532 30V37L0 37V30Z" fill="#001B3A"/>
<path d="M13.9532 9H27.9064V16H13.9532V9Z" fill="#009DDA"/>
<path d="M13.9532 30H27.9064V37H13.9532V30Z" fill="#009DDA"/>
<path d="M0 19.5L18.9365 19.5V26.5L0 26.5V19.5Z" fill="#001B3A"/>
<path d="M35.3798 20.9001V11.4501H43.1908V13.4661H37.6904V15.2427H42.6634V17.1075H37.6904V18.8841H43.1908V20.9001H35.3798Z" fill="#001B3A"/>
<path d="M46.2876 20.0433L47.0662 18.0147C48.2341 18.6951 49.8289 19.1739 51.2982 19.1739C52.441 19.1739 53.094 18.8715 53.094 18.4557C53.094 17.2335 46.589 17.3847 46.589 13.9953C46.589 12.3447 48.1839 11.1729 50.9717 11.1729C53.6466 11.1729 55.1033 12.3825 55.1033 12.3825L54.0861 14.1465C53.2949 13.6047 51.8884 13.1889 50.8336 13.1889C49.7034 13.1889 48.9248 13.5291 48.9248 14.0709C48.9248 15.3939 55.4549 15.1167 55.4549 18.4809C55.4549 19.7787 54.174 21.2277 51.2103 21.2277C48.322 21.2277 46.2876 20.0433 46.2876 20.0433Z" fill="#001B3A"/>
<path d="M61.1665 20.9001V13.4661H58.1149V11.4501H66.5287V13.4661H63.4771V20.9001H61.1665Z" fill="#001B3A"/>
<path d="M72.0589 13.5669L70.8031 17.3217H73.8798L72.624 13.5669H72.0589ZM69.6227 20.9001H67.1613L70.5771 11.4501H74.1184L77.5342 20.9001H75.0728L74.4952 19.1739H70.1878L69.6227 20.9001Z" fill="#001B3A"/>
<path d="M81.2023 20.9001V13.4661H78.1507V11.4501H86.5645V13.4661H83.5129V20.9001H81.2023Z" fill="#001B3A"/>
<path d="M89.4426 20.9001V11.4501H97.2537V13.4661H91.7533V15.2427H96.7262V17.1075H91.7533V18.8841H97.2537V20.9001H89.4426Z" fill="#001B3A"/>
<path d="M42.9522 31.1481L45.2126 31.6017C44.6099 33.7059 42.8266 34.8021 40.2899 34.8021C37.1379 34.8021 35.1412 33.1011 35.1412 29.8251C35.1412 26.5491 37.1253 24.8481 40.2899 24.8481C42.902 24.8481 44.7229 26.0073 45.2754 28.2501L42.9899 28.6407C42.6383 27.4815 41.709 26.8641 40.2899 26.8641C38.4565 26.8641 37.477 27.9477 37.477 29.8251C37.477 31.7025 38.4565 32.7861 40.2899 32.7861C41.6462 32.7861 42.5629 32.2065 42.9522 31.1481Z" fill="#001B3A"/>
<path d="M52.6976 27.2169L51.4419 30.9717H54.5185L53.2628 27.2169H52.6976ZM50.2614 34.5501H47.8001L51.2158 25.1001H54.7571L58.1729 34.5501H55.7115L55.1339 32.8239H50.8265L50.2614 34.5501Z" fill="#001B3A"/>
<path d="M65.9702 27.1161H63.2326V30.2787H65.9702C66.7237 30.2787 67.5274 29.9889 67.5274 28.7541C67.5274 27.5193 66.7237 27.1161 65.9702 27.1161ZM63.2326 34.5501H60.9219V25.1001H65.9576C68.1804 25.1001 69.838 26.2215 69.838 28.7415C69.838 31.2615 68.1804 32.2947 65.9576 32.2947H63.2326V34.5501Z" fill="#001B3A"/>
<path d="M73.0273 34.5501V25.1001H75.3379V34.5501H73.0273Z" fill="#001B3A"/>
<path d="M81.3862 34.5501V27.1161H78.3346V25.1001H86.7485V27.1161H83.6969V34.5501H81.3862Z" fill="#001B3A"/>
<path d="M92.2787 27.2169L91.0229 30.9717H94.0996L92.8438 27.2169H92.2787ZM89.8424 34.5501H87.3811L90.7968 25.1001H94.3382L97.7539 34.5501H95.2926L94.7149 32.8239H90.4075L89.8424 34.5501Z" fill="#001B3A"/>
<path d="M100.49 34.5501V25.1001H102.801V32.5341H108V34.5501H100.49Z" fill="#001B3A"/>
</svg>
