<svg width="46" height="46" viewBox="0 0 46 46" fill="none" xmlns="http://www.w3.org/2000/svg">
<path d="M23.0002 4.3125C31.2038 4.31268 37.8538 10.9634 37.8538 19.167C37.8536 24.7475 34.1873 30.3636 30.8108 34.4033C29.0885 36.4639 27.3705 38.1977 26.0842 39.415C25.4403 40.0245 24.9019 40.5071 24.5227 40.8389C24.3333 41.0046 24.1832 41.1328 24.0793 41.2207C24.0275 41.2646 23.9873 41.2989 23.9592 41.3223C23.9452 41.334 23.9338 41.3432 23.926 41.3496C23.9222 41.3527 23.9195 41.3556 23.9172 41.3574C23.9162 41.3582 23.915 41.3588 23.9143 41.3594L23.9133 41.3604L23.0002 40.25L23.9124 41.3604C23.4152 41.7687 22.7125 41.7947 22.1897 41.4375L22.0872 41.3604L22.0862 41.3594C22.0855 41.3588 22.0843 41.3583 22.0833 41.3574C22.081 41.3555 22.0774 41.3528 22.0735 41.3496C22.0657 41.3432 22.0552 41.3338 22.0413 41.3223C22.0132 41.2988 21.9721 41.2647 21.9202 41.2207C21.8163 41.1328 21.6662 41.0046 21.4768 40.8389C21.0976 40.507 20.5593 40.0246 19.9153 39.415C18.629 38.1977 16.911 36.4639 15.1887 34.4033C11.8123 30.3636 8.14589 24.7474 8.14575 19.167C8.14575 10.9632 14.7965 4.3125 23.0002 4.3125ZM23.0002 13.417C19.8243 13.417 17.2502 15.9911 17.2502 19.167C17.2504 22.3428 19.8244 24.917 23.0002 24.917C26.176 24.9169 28.7501 22.3427 28.7502 19.167C28.7502 15.9912 26.176 13.4171 23.0002 13.417Z" fill="#009DDA"/>
</svg>
