<svg width="20" height="20" viewBox="0 0 20 20" fill="none" xmlns="http://www.w3.org/2000/svg">
<g clip-path="url(#clip0_964_35485)">
<path d="M10.0945 2.74974C9.99048 -0.298259 7.62448 0.423741 7.72048 3.29374C7.86448 6.74174 9.16448 7.73574 11.0885 10.1577C13.5105 13.2217 15.3385 14.9457 16.8225 15.3457C19.0445 15.9397 20.2705 14.0617 18.1065 13.1237C15.9405 12.1857 12.0925 12.4817 9.84648 12.8277C6.19848 13.4137 3.57648 14.4557 1.54648 16.7337C-0.233523 18.7057 1.34648 20.1817 3.12648 18.4657C4.75448 16.9417 6.92848 12.7317 7.81848 10.7677C9.00448 8.15374 10.3365 5.82774 10.0885 2.46774L10.0945 2.74974Z" stroke="#B30B00" stroke-width="1.2"/>
</g>
<defs>
<clipPath id="clip0_964_35485">
<rect width="20" height="20" fill="white"/>
</clipPath>
</defs>
</svg>
