<svg width="20" height="20" viewBox="0 0 20 20" fill="none" xmlns="http://www.w3.org/2000/svg">
<g opacity="0.6">
<path fill-rule="evenodd" clip-rule="evenodd" d="M2.59813 10.3895C2.46729 10.147 2.46729 9.85283 2.59813 9.61033C4.17479 6.69449 7.08729 4.16699 9.99979 4.16699C12.9123 4.16699 15.8248 6.69449 17.4015 9.61116C17.5323 9.85366 17.5323 10.1478 17.4015 10.3903C15.8248 13.3062 12.9123 15.8337 9.99979 15.8337C7.08729 15.8337 4.17479 13.3062 2.59813 10.3895Z" stroke="#001B3A" stroke-width="1.25" stroke-linecap="round" stroke-linejoin="round"/>
<path d="M11.7678 8.23223C12.7441 9.20854 12.7441 10.7915 11.7678 11.7678C10.7915 12.7441 9.20854 12.7441 8.23223 11.7678C7.25592 10.7915 7.25592 9.20854 8.23223 8.23223C9.20854 7.25592 10.7915 7.25592 11.7678 8.23223" stroke="#001B3A" stroke-width="1.1905" stroke-linecap="round" stroke-linejoin="round"/>
</g>
</svg>
