<svg width="46" height="46" viewBox="0 0 46 46" fill="none" xmlns="http://www.w3.org/2000/svg">
<path d="M20.5508 14.1124L21.381 13.2821C23.6283 11.0349 27.2696 11.0349 29.5168 13.2821L38.1704 21.9357C40.9526 24.7179 40.9526 29.2278 38.1704 32.01L37.7466 32.4338C34.9644 35.216 30.4545 35.216 27.6722 32.4338L20.9362 25.6977" stroke="white" stroke-width="2.875" stroke-linecap="round" stroke-linejoin="round"/>
<path d="M10.5397 27.8175C7.70759 26.4024 5.74219 23.5051 5.74219 20.1227C5.74219 15.3578 9.60588 11.4941 14.3708 11.4941C19.1357 11.4941 22.9994 15.3578 22.9994 20.1227C22.9994 23.5032 21.0359 26.4005 18.2057 27.8156V27.8118L18.2038 36.4289C18.2019 36.9351 18.0005 37.4202 17.642 37.7768L15.7207 39.6981C14.9729 40.444 13.7649 40.4421 13.019 39.6962L11.0958 37.7692C10.7372 37.4106 10.5359 36.9236 10.5359 36.4174L10.5397 27.8137" stroke="white" stroke-width="2.875" stroke-linecap="round" stroke-linejoin="round"/>
<path d="M14.3711 19.6438V11.0152C14.3711 8.10259 16.7315 5.74219 19.6441 5.74219V5.74219C22.5568 5.74219 24.9172 8.10259 24.9172 11.0152V11.6231" stroke="white" stroke-width="2.875" stroke-linecap="round" stroke-linejoin="round"/>
<path d="M14.369 19.6434C14.1044 19.6434 13.8896 19.8582 13.8935 20.1228C13.8935 20.3874 14.1082 20.6022 14.3728 20.6022C14.6374 20.6022 14.8522 20.3874 14.8522 20.1228C14.8503 19.8582 14.6355 19.6434 14.369 19.6434" stroke="white" stroke-width="2.875" stroke-linecap="round" stroke-linejoin="round"/>
</svg>
