<svg width="46" height="46" viewBox="0 0 46 46" fill="none" xmlns="http://www.w3.org/2000/svg">
<path d="M9.57712 5.74316C7.45832 5.74316 5.74219 7.4593 5.74219 9.57809" stroke="#001B3A" stroke-width="2.875" stroke-linecap="round" stroke-linejoin="round"/>
<path d="M5.74291 15.9629V19.7978" stroke="#001B3A" stroke-width="2.875" stroke-linecap="round" stroke-linejoin="round"/>
<path d="M15.9629 5.74291H19.7978" stroke="#001B3A" stroke-width="2.875" stroke-linecap="round" stroke-linejoin="round"/>
<path d="M36.4219 40.2578C38.5407 40.2578 40.2568 38.5417 40.2568 36.4229" stroke="#001B3A" stroke-width="2.875" stroke-linecap="round" stroke-linejoin="round"/>
<path d="M40.2566 30.0371V26.2021" stroke="#001B3A" stroke-width="2.875" stroke-linecap="round" stroke-linejoin="round"/>
<path d="M30.0371 40.2576H26.2021" stroke="#001B3A" stroke-width="2.875" stroke-linecap="round" stroke-linejoin="round"/>
<path d="M16.8224 30.8828L12.5618 35.1434L10.0039 32.5874" stroke="#001B3A" stroke-width="2.875" stroke-linecap="round" stroke-linejoin="round"/>
<path fill-rule="evenodd" clip-rule="evenodd" d="M17.247 40.2567H9.57712C7.45832 40.2567 5.74219 38.5406 5.74219 36.4218V28.7519C5.74219 26.6331 7.45832 24.917 9.57712 24.917H17.247C19.3658 24.917 21.0819 26.6331 21.0819 28.7519V36.4218C21.0819 38.5406 19.3658 40.2567 17.247 40.2567Z" stroke="#001B3A" stroke-width="2.875" stroke-linecap="round" stroke-linejoin="round"/>
<path d="M26.835 8.34082V17.2474C26.835 18.3059 27.694 19.1649 28.7524 19.1649H38.4414C39.4998 19.1649 40.3588 18.3059 40.3588 17.2474V8.34082" stroke="#001B3A" stroke-width="2.875" stroke-linecap="round" stroke-linejoin="round"/>
<path d="M24.918 9.57759L33.723 3.8252L42.1752 9.57759" stroke="#001B3A" stroke-width="2.875" stroke-linecap="round" stroke-linejoin="round"/>
</svg>
