<svg width="22" height="22" viewBox="0 0 22 22" fill="none" xmlns="http://www.w3.org/2000/svg">
<path fill-rule="evenodd" clip-rule="evenodd" d="M11 19.25V19.25C6.44325 19.25 2.75 15.5568 2.75 11V11C2.75 6.44325 6.44325 2.75 11 2.75V2.75C15.5568 2.75 19.25 6.44325 19.25 11V11C19.25 15.5568 15.5568 19.25 11 19.25Z" stroke="#334961" stroke-width="1.375" stroke-linecap="round" stroke-linejoin="round"/>
<path d="M10.9997 15.5833V11H10.083" stroke="#334961" stroke-width="1.375" stroke-linecap="round" stroke-linejoin="round"/>
<path d="M10.7699 7.33366C10.6434 7.33366 10.5408 7.43633 10.5417 7.56283C10.5417 7.68933 10.6443 7.79199 10.7708 7.79199C10.8973 7.79199 11 7.68933 11 7.56283C11 7.43633 10.8973 7.33366 10.7699 7.33366" stroke="#334961" stroke-width="1.375" stroke-linecap="round" stroke-linejoin="round"/>
</svg>
