<svg width="14" height="14" viewBox="0 0 14 14" fill="none" xmlns="http://www.w3.org/2000/svg">
<path d="M5.25 5.25H11.6667C11.9888 5.25 12.25 4.98883 12.25 4.66667V2.33333C12.25 2.01117 11.9888 1.75 11.6667 1.75H2.33333C2.01117 1.75 1.75 2.01117 1.75 2.33333V11.6667C1.75 11.9888 2.01117 12.25 2.33333 12.25H4.66667C4.98883 12.25 5.25 11.9888 5.25 11.6667V1.75" stroke="#001B3A" stroke-width="0.875" stroke-linecap="round" stroke-linejoin="round"/>
<path d="M4.0835 10.4997H5.25015" stroke="#001B3A" stroke-width="0.875" stroke-linecap="round" stroke-linejoin="round"/>
<path d="M4.0835 8.16667H5.25015" stroke="#001B3A" stroke-width="0.875" stroke-linecap="round" stroke-linejoin="round"/>
<path d="M4.0835 5.83366H5.25015" stroke="#001B3A" stroke-width="0.875" stroke-linecap="round" stroke-linejoin="round"/>
<path d="M4.0835 3.49967H5.25015" stroke="#001B3A" stroke-width="0.875" stroke-linecap="round" stroke-linejoin="round"/>
<path d="M8.16667 4.08301V5.24967" stroke="#001B3A" stroke-width="0.875" stroke-linecap="round" stroke-linejoin="round"/>
<path d="M10.5002 4.08301V5.24967" stroke="#001B3A" stroke-width="0.875" stroke-linecap="round" stroke-linejoin="round"/>
<path d="M6.7085 12.2497H7.5835" stroke="#001B3A" stroke-width="0.875" stroke-linecap="round" stroke-linejoin="round"/>
<path d="M9.0415 12.2497H9.9165" stroke="#001B3A" stroke-width="0.875" stroke-linecap="round" stroke-linejoin="round"/>
<path d="M12.25 11.375V11.6667C12.25 11.9888 11.9888 12.25 11.6667 12.25H11.375" stroke="#001B3A" stroke-width="0.875" stroke-linecap="round" stroke-linejoin="round"/>
<path d="M12.2502 6.70801V7.58301" stroke="#001B3A" stroke-width="0.875" stroke-linecap="round" stroke-linejoin="round"/>
<path d="M12.2502 9.04199V9.91699" stroke="#001B3A" stroke-width="0.875" stroke-linecap="round" stroke-linejoin="round"/>
</svg>
