<svg width="132" height="36" viewBox="0 0 132 36" fill="none" xmlns="http://www.w3.org/2000/svg">
<path d="M17.9668 17.4588L11.1274 13.1713V18.3265L17.9668 22.614L34.3373 10.5458C33.7563 9.26619 33.0356 8.07481 32.1825 6.97168L17.9668 17.4514V17.4588Z" fill="#99A4B0"/>
<path d="M35.9401 17.9663C35.9401 16.8705 35.8371 15.7895 35.6532 14.7452L31.7849 17.5986C31.7849 17.7236 31.7849 17.8413 31.7849 17.9663C31.7849 25.5852 25.5853 31.7848 17.9664 31.7848C10.3474 31.7848 4.14778 25.5852 4.14778 17.9663C4.14778 10.3473 10.3474 4.14777 17.9664 4.14777C20.8566 4.14777 23.5408 5.03762 25.7545 6.55994L29.2477 3.98597C26.1663 1.4929 22.2392 0 17.9664 0C8.04552 0 0 8.04549 0 17.9663C0 27.8871 8.04552 35.9326 17.9664 35.9326C27.8872 35.9326 35.9327 27.8871 35.9327 17.9663" fill="#99A4B0"/>
<path d="M104.658 10.752L109.541 7.15576H93.1924V28.7771H109.541V25.1735H97.8623V19.6432H107.827V16.0396H97.8623V10.752H104.658Z" fill="#99A4B0"/>
<path d="M80.8594 15.5837H75.1819V10.752H84.2423L89.1255 7.14844H70.512V28.7698H80.2563C85.7205 28.7698 88.8534 26.2914 88.8534 21.9745C88.8534 17.6576 86.0147 15.569 80.8594 15.569M80.0504 25.1662H75.1819V19.1725H80.0504C83.0141 19.1725 84.3894 20.1727 84.3894 22.1731C84.3894 24.1734 82.9332 25.1736 80.0504 25.1736" fill="#99A4B0"/>
<path d="M122.793 7.15576H113.894V28.7771H118.556V22.651H122.793C128.47 22.651 132 19.6652 132 14.8924C132 10.1195 128.47 7.15576 122.793 7.15576ZM122.69 19.0548H118.556V10.7593H122.69C125.675 10.7593 127.323 12.2302 127.323 14.9071C127.323 17.584 125.675 19.0548 122.69 19.0548Z" fill="#99A4B0"/>
<path d="M62.5038 24.0927C61.3051 24.7545 59.9151 25.1002 58.4737 25.1002C54.2671 25.1002 51.2151 22.0997 51.2151 17.9593C51.2151 13.8189 54.2671 10.8183 58.4737 10.8183C60.0622 10.8183 61.4889 11.2669 62.7171 12.1495L66.0632 9.6858L65.8426 9.49459C63.8864 7.78106 61.2756 6.86914 58.2898 6.86914C55.054 6.86914 52.1123 7.95756 50.0163 9.94319C47.9057 11.9362 46.7437 14.7455 46.7437 17.8416C46.7437 20.9377 47.8983 23.8058 50.0016 25.8577C52.1123 27.9168 55.0393 29.0567 58.2604 29.0567C61.4816 29.0567 64.563 27.8874 66.5486 25.7474C65.0116 24.6148 63.5334 23.519 63.5334 23.519L62.4964 24.0853L62.5038 24.0927Z" fill="#99A4B0"/>
</svg>
