<svg width="48" height="48" viewBox="0 0 48 48" fill="none" xmlns="http://www.w3.org/2000/svg">
<g clip-path="url(#clip0_2994_7299)">
<mask id="mask0_2994_7299" style="mask-type:luminance" maskUnits="userSpaceOnUse" x="0" y="0" width="48" height="48">
<path d="M48 0H0V48H48V0Z" fill="white"/>
</mask>
<g mask="url(#mask0_2994_7299)">
<path d="M48 48H0V0H48V48ZM38.2305 32.9883C36.9346 32.9883 35.8154 33.1749 34.8926 33.5381C33.96 33.9112 33.2331 34.5296 32.7324 35.3838C32.2513 36.1986 32.006 37.2985 31.9863 38.6338V38.7617L32.1338 38.7715L31.9863 38.7812V38.9082C32.006 40.2434 32.2514 41.3433 32.7324 42.1582C33.2332 43.0124 33.96 43.6308 34.8926 44.0039C35.8154 44.3671 36.9346 44.5537 38.2305 44.5537C39.4576 44.5537 40.5474 44.4261 41.3721 44.1807C42.2263 43.9254 42.9036 43.5128 43.4043 42.9434C43.9442 42.3249 44.2584 41.5399 44.3271 40.627H41.6279V40.6172C41.5592 41.0589 41.3823 41.4224 41.0977 41.6973C40.8326 41.9525 40.4691 42.1391 40.0176 42.2471C39.5758 42.3453 38.9177 42.4033 38.2305 42.4033C37.5139 42.4033 36.8856 42.3154 36.3457 42.1289C35.8254 41.9522 35.4127 41.638 35.1279 41.2061C34.8334 40.7741 34.6866 40.1458 34.6865 39.3311V38.2012C34.6866 37.3963 34.8334 36.7679 35.1279 36.3262C35.4225 35.8942 35.8254 35.58 36.3457 35.4033C36.8758 35.2168 37.5139 35.1289 38.2305 35.1289C38.9177 35.1289 39.5758 35.188 40.0176 35.2861C40.469 35.3941 40.8326 35.57 41.0977 35.835C41.3823 36.1098 41.5592 36.4734 41.6279 36.915H44.3271C44.2485 36.0021 43.9442 35.2269 43.4043 34.5986C42.9134 34.0292 42.2262 33.6166 41.3721 33.3613C40.5474 33.1159 39.4575 32.9883 38.2305 32.9883ZM3.69141 14.7666H6.40137V6.84277L9.84766 13.5391H12.3115L15.7578 6.84277V14.7666H18.458V3.69141H14.6094L11.0742 11.0156L7.5498 3.69141H3.69141V14.7666ZM31.9766 5.90039H36.8076V14.7666H39.5068V5.90039H44.3281V3.69141H31.9766V5.90039Z" fill="#99A4B0"/>
</g>
</g>
<defs>
<clipPath id="clip0_2994_7299">
<rect width="48" height="48" fill="white"/>
</clipPath>
</defs>
</svg>
