<svg width="63" height="32" viewBox="0 0 63 32" fill="none" xmlns="http://www.w3.org/2000/svg">
<g clip-path="url(#clip0_2994_7348)">
<path d="M52.9641 32H30.4479V0H50.9481C57.5631 0 61.1604 4.15378 61.1604 9.06223C61.1604 11.2691 60.0579 13.5204 58.3632 15.2263C60.858 16.5517 63 19.5386 63 22.6587C63 28.1379 58.7475 32 52.9641 32ZM38.3103 25.5632H51.8994C53.802 25.5632 55.0557 24.149 55.0557 22.4051V22.3543C55.0557 20.6104 53.802 19.1962 51.8994 19.1962H38.3103V25.5632ZM38.3103 12.7531H49.9338C51.9939 12.7531 53.2161 11.3389 53.2161 9.59493C53.2161 7.85097 52.0695 6.43678 49.9338 6.43678H38.3103V12.7531Z" fill="#99A4B0"/>
<path d="M16.6383 32H0V0H14.6223C21.2373 0 24.8346 4.15378 24.8346 9.06223C24.8346 11.2691 23.7321 13.5204 22.0374 15.2263C24.5322 16.5517 26.6742 19.5386 26.6742 22.6587C26.6742 28.1379 22.4217 32 16.6383 32ZM7.8561 25.5632H15.5673C17.4699 25.5632 18.7236 24.149 18.7236 22.4051V22.3543C18.7236 20.6104 17.4699 19.1962 15.5673 19.1962H7.8561V25.5632ZM7.8561 12.7531H13.6017C15.6618 12.7531 16.884 11.3389 16.884 9.59493C16.884 7.85097 15.7374 6.43678 13.6017 6.43678H7.8561V12.7531Z" fill="#99A4B0"/>
</g>
<defs>
<clipPath id="clip0_2994_7348">
<rect width="63" height="32" fill="white"/>
</clipPath>
</defs>
</svg>
