<svg width="63" height="42" viewBox="0 0 63 42" fill="none" xmlns="http://www.w3.org/2000/svg">
<path d="M39.3431 41.6142L34.7047 33.8984L30.1623 41.6142H24.7242L31.7106 29.9924L24.5898 19.2031H30.2711L34.8327 26.4067L39.1832 19.2031H44.6213L37.6157 30.3446L44.8132 41.6142H39.3431Z" fill="#99A4B0"/>
<path d="M62.4902 33.9959C62.4902 38.9263 58.7795 41.9998 53.9171 41.9998C49.6306 41.9998 46.0223 39.6307 45.6704 34.4761H50.3088C50.6287 36.7172 52.4201 37.6777 54.3714 37.6777C56.8025 37.6777 57.8518 36.0449 57.8518 33.9318C57.8518 31.7228 56.2203 30.3461 53.9491 30.3461C52.0618 30.3461 50.8142 31.2425 50.2384 32.203H45.8048L47.337 19.2046H61.9192L61.4329 23.5587H51.0014L50.5871 27.8601C50.5871 27.8601 51.6827 26.5682 55.0032 26.5682C59.0034 26.5682 62.4902 29.2559 62.4902 33.9959Z" fill="#99A4B0"/>
<path d="M46.2191 16.4129C43.748 6.77294 35.9091 0 19.6412 0H0L2.66627 18.0441C4.67198 34.3257 10.8938 39.5635 21.9044 41.4925C21.9556 41.5005 22.3042 41.5501 22.309 41.1419C22.3106 40.9946 22.2179 40.8682 22.0899 40.8137C14.6477 37.6778 13.7984 27.3927 12.2086 17.0724L10.9786 8.84756H22.1907C32.5279 8.84756 40.5091 8.68428 45.5618 16.6706C45.6369 16.7827 45.7537 16.8659 45.8929 16.8659C46.088 16.8659 46.2335 16.7074 46.2335 16.5121C46.2335 16.4769 46.2287 16.4433 46.2191 16.4129Z" fill="#99A4B0"/>
</svg>
