<svg width="132" height="29" viewBox="0 0 132 29" fill="none" xmlns="http://www.w3.org/2000/svg">
<g clip-path="url(#clip0_2994_7294)">
<path d="M15.3745 22.092C18.7875 21.657 21.5445 18.8856 21.98 15.4521C22.132 14.2802 22.0142 13.0888 21.6356 11.97C21.257 10.8511 20.6278 9.83464 19.7964 8.99897C18.9651 8.1633 17.9539 7.53079 16.8408 7.15022C15.7278 6.76966 14.5426 6.65123 13.3768 6.80406C9.96116 7.24179 7.20413 10.0132 6.77139 13.444C6.61935 14.6159 6.73717 15.8072 7.11576 16.9261C7.49435 18.0449 8.12358 19.0614 8.95491 19.8971C9.78624 20.7327 10.7974 21.3652 11.9105 21.7458C13.0236 22.1264 14.2087 22.2448 15.3745 22.092ZM15.8399 0.0738679C19.1258 0.42158 22.1933 1.89266 24.5296 4.24114C26.8659 6.58961 28.3293 9.67313 28.6752 12.9761C29.5761 22.1139 21.999 29.7305 12.906 28.8249C9.62062 28.4766 6.55374 27.0053 4.218 24.6568C1.88226 22.3084 0.419206 19.2252 0.0734089 15.9226C-0.827457 6.7849 6.74961 -0.831698 15.8399 0.0738679ZM36.3884 0.64566H57.4294C58.2296 0.64566 58.6814 1.56491 58.1997 2.20509L43.6416 21.512H55.048C57.1273 21.512 58.7631 23.4134 58.333 25.5802C58.0173 27.1697 56.534 28.2531 54.9228 28.2531H32.0718C31.2798 28.2531 30.8308 27.3421 31.3071 26.7101L45.876 7.38679H36.5136C34.9024 7.38679 33.4191 6.30066 33.1033 4.71387C32.6706 2.54708 34.309 0.64566 36.3884 0.64566ZM127.702 0.722264C129.874 0.262642 131.785 1.91509 131.785 4.01623V27.2791C131.785 28.0917 130.851 28.5431 130.22 28.0397L112.069 13.5643V24.888C112.069 26.9891 110.159 28.6416 107.987 28.182C106.43 27.8537 105.363 26.3955 105.363 24.7977V1.61689C105.363 0.804339 106.297 0.352924 106.928 0.856321L125.081 15.3317V4.10651C125.081 2.50877 126.151 1.0533 127.705 0.722264H127.702ZM80.441 0C91.5535 0 100.562 6.46755 100.562 14.4453C100.562 22.423 91.5535 28.8906 80.441 28.8906C69.3285 28.8906 60.3198 22.423 60.3198 14.4453C60.3198 6.46755 69.3285 0 80.441 0ZM80.441 6.74113C72.7632 6.74113 67.026 10.8093 67.026 14.4453C67.026 18.0812 72.7632 22.1494 80.441 22.1494C88.1188 22.1494 93.856 18.084 93.856 14.4453C93.856 10.8066 88.1188 6.74113 80.441 6.74113Z" fill="#99A4B0"/>
</g>
<defs>
<clipPath id="clip0_2994_7294">
<rect width="132" height="29" fill="white"/>
</clipPath>
</defs>
</svg>
